<svg width="317" height="170" viewBox="0 0 317 170" fill="none" xmlns="http://www.w3.org/2000/svg">
<path d="M38.1994 129.725L23.3991 131.84Z" fill="white"/>
<path d="M40.377 60.7624L49.4924 66.9592Z" fill="white"/>
<path d="M111.858 84.2483L110.206 86.2927L110.209 86.5116" fill="white"/>
<path d="M228.781 155.922L198.788 106.781Z" fill="white"/>
<path d="M201.665 29.3445L207.303 101.31Z" fill="white"/>
<path d="M228.781 155.922L231.884 143.856L232.66 142.297" fill="white"/>
<path d="M16.3534 132.847L2.64333 134.806Z" fill="white"/>
<path d="M19.3834 66.2589L25.914 70.528Z" fill="white"/>
<path d="M16.3534 132.847L23.4955 129.496Z" fill="white"/>
<path d="M59.1648 168.32L60.5928 163.304Z" fill="white"/>
<path d="M263.681 153.371L237.931 101.188Z" fill="white"/>
<path d="M238.047 20.3515L245.865 95.5793Z" fill="white"/>
<path d="M263.681 153.371L266.853 140.761L272.103 124.437" fill="white"/>
<path d="M256.495 88.6069L271.832 124.466Z" fill="white"/>
<path d="M283.535 30.7837L290.235 80.6506Z" fill="white"/>
<path d="M253.124 86.5392L256.495 88.6069Z" fill="white"/>
<path d="M84.4293 114.393L110.566 110.292L112.274 110.024L174.178 100.31" fill="white"/>
<path d="M172.708 74.4014L111.889 86.1861L110.209 86.5116L81.6281 92.0495L81.4586 92.0826L80.1555 92.335" fill="white"/>
<path d="M3.01237 127.997L0.594727 128.372Z" fill="white"/>
<path d="M5.20669 87.5182L2.84198 88.0609Z" fill="white"/>
<path d="M61.4296 51.2028L61.2473 50.599Z" fill="white"/>
<path d="M110.209 86.5116L110.206 86.2927L83.1438 52.9257L49.4924 66.9592L48.0213 124.978L82.8431 157.045L110.914 133.428L110.566 110.292L84.4293 114.393L82.9665 114.331L81.4895 113.837L80.0574 112.922L78.7281 111.619L77.5573 109.975L76.5947 108.056L75.8819 105.939L75.4492 103.712L75.3151 101.467L75.4837 99.2976L75.9471 97.2924L76.6831 95.5329L77.659 94.0868L78.8331 93.0085L80.1555 92.335L81.4586 92.0826L81.6281 92.0495L110.209 86.5116Z" fill="white"/>
<path d="M40.377 60.7624L38.1994 129.725L48.0213 124.978L49.4924 66.9592L40.377 60.7624Z" fill="white"/>
<path d="M23.4955 129.496L23.3991 131.84L38.1994 129.725L40.377 60.7624L26.162 64.4842L25.914 70.528L23.4955 129.496Z" fill="white"/>
<path d="M80.6589 45.3641L40.377 60.7624L49.4924 66.9592L83.1438 52.9257L80.6589 45.3641Z" fill="white"/>
<path d="M110.206 86.2927L111.858 84.2483L80.6589 45.3641L83.1438 52.9257L110.206 86.2927Z" fill="white"/>
<path d="M80.102 166.789L112.731 138.358L110.914 133.428L82.8431 157.045L80.102 166.789Z" fill="white"/>
<path d="M112.274 110.024L110.566 110.292L110.914 133.428L112.731 138.358L112.274 110.024Z" fill="white"/>
<path d="M82.9665 114.331L84.4293 114.393L110.566 110.292L112.274 110.024L174.178 100.31L172.708 74.4014L111.889 86.1861L110.209 86.5116L81.6281 92.0495L81.4586 92.0826L80.1555 92.335L78.8331 93.0085L77.659 94.0868L76.6831 95.5329L75.9471 97.2924L75.4837 99.2976L75.3151 101.467L75.4492 103.712L75.8819 105.939L76.5947 108.056L77.5573 109.975L78.7281 111.619L80.0574 112.922L81.4895 113.837L82.9665 114.331Z" fill="white"/>
<path d="M38.1994 129.725L80.102 166.789L82.8431 157.045L48.0213 124.978L38.1994 129.725Z" fill="white"/>
<path d="M23.3991 131.84L60.5928 163.304L62.9251 165.277L65.9366 167.825L80.102 166.789L38.1994 129.725L23.3991 131.84Z" fill="white"/>
<path d="M23.3991 131.84L23.4955 129.496L16.3534 132.847L59.1648 168.32L60.5928 163.304L23.3991 131.84Z" fill="white"/>
<path d="M2.64333 134.806L45.9344 169.287L59.1648 168.32L16.3534 132.847L2.64333 134.806Z" fill="white"/>
<path d="M5.23197 87.0519L5.20669 87.5182L3.01237 127.997L2.89135 130.228L2.64333 134.806L16.3534 132.847L19.3834 66.2589L61.2473 50.599L48.9289 53.921L6.17167 69.7182L5.23197 87.0519Z" fill="white"/>
<path d="M23.4955 129.496L25.914 70.528L19.3834 66.2589L16.3534 132.847L23.4955 129.496Z" fill="white"/>
<path d="M0.594727 128.372L3.01237 127.997L5.20669 87.5182L2.84198 88.0609L0.594727 128.372Z" fill="white"/>
<path d="M61.6838 51.1069L61.4296 51.2028L26.162 64.4842L40.377 60.7624L80.6589 45.3641L67.5367 48.9029L61.6838 51.1069Z" fill="white"/>
<path d="M61.4296 51.2028L61.2473 50.599L19.3834 66.2589L25.914 70.528L26.162 64.4842L61.4296 51.2028Z" fill="white"/>
<path d="M62.9251 165.277L60.5928 163.304L59.1648 168.32L62.9251 165.277Z" fill="white"/>
<path d="M170.009 26.8213L172.708 74.4014L174.178 100.31L174.74 110.217L198.788 106.781L192.562 20.9163L170.009 26.8213Z" fill="white"/>
<path d="M192.562 20.9163L198.788 106.781L207.303 101.31L201.665 29.3445L192.562 20.9163Z" fill="white"/>
<path d="M231.884 143.856L232.66 142.297L211.301 104.993L210.311 100.862L204.51 28.6413L204.486 27.5909L201.665 29.3445L207.303 101.31L231.884 143.856Z" fill="white"/>
<path d="M204.486 27.5909L204.51 28.6413L210.311 100.862L211.301 104.993L237.931 101.188L229.094 11.3513L204.264 17.8527L204.486 27.5909Z" fill="white"/>
<path d="M229.094 11.3513L237.931 101.188L245.865 95.5793L238.047 20.3515L229.094 11.3513Z" fill="white"/>
<path d="M250.113 31.3247L247.888 38.6534L253.124 86.5392L256.495 88.6069L250.113 31.3247Z" fill="white"/>
<path d="M256.495 88.6069L284.06 84.3236L276.39 25.2955L250.113 31.3247L256.495 88.6069Z" fill="white"/>
<path d="M276.39 25.2955L284.06 84.3236L290.235 80.6506L283.535 30.7837L276.39 25.2955Z" fill="white"/>
<path d="M291.344 51.9751L291.619 51.3603L296.599 50.3953L288.35 22.1149L283.535 30.7837L290.235 80.6506L300.926 112.936L303.717 96.1885L301.468 80.3344L296.908 81.0498L296.466 80.7274L295.939 79.8309L295.347 78.3843L294.712 76.4375L294.06 74.0631L293.419 71.356L292.816 68.4284L292.277 65.4045L292.27 65.3565L291.825 62.4129L291.479 59.5816L291.253 57.0289L291.154 54.8579L291.185 53.1532L291.344 51.9751Z" fill="white"/>
<path d="M291.619 51.3603L291.344 51.9751L291.185 53.1532L291.154 54.8579L291.253 57.0289L291.479 59.5816L291.825 62.4129L292.27 65.3565L292.277 65.4045L292.816 68.4284L293.419 71.356L294.06 74.0631L294.712 76.4375L295.347 78.3843L295.939 79.8309L296.466 80.7274L296.908 81.0498L301.468 80.3344L316.032 78.0488L315.72 77.6969L315.316 76.7581L314.834 75.2582L314.291 73.2483L313.71 70.8037L313.116 68.0221L312.532 65.0192L311.984 61.9226L311.496 58.8647L311.089 55.9759L310.778 53.3773L310.576 51.1745L310.489 49.4525L310.519 48.2723L310.663 47.67L296.599 50.3953L291.619 51.3603Z" fill="white"/>
<path d="M284.06 84.3236L297.171 121.727L300.926 112.936L290.235 80.6506L284.06 84.3236Z" fill="white"/>
<path d="M288.35 22.1149L282.863 15.9452L259.609 21.504L257.113 24.0849L250.113 31.3247L276.39 25.2955L283.535 30.7837L288.35 22.1149Z" fill="white"/>
<path d="M251.868 9.66382L246.663 0.595459L229.094 11.3513L238.047 20.3515L251.868 9.66382Z" fill="white"/>
<path d="M246.663 0.595459L225.657 6.26054L216.785 11.0679L204.264 17.8527L229.094 11.3513L246.663 0.595459Z" fill="white"/>
<path d="M216.785 11.0679L215.673 8.95315L192.562 20.9163L201.665 29.3445L204.486 27.5909L204.264 17.8527L216.785 11.0679Z" fill="white"/>
<path d="M215.673 8.95315L196.274 14.1844L170.009 26.8213L192.562 20.9163L215.673 8.95315Z" fill="white"/>
<path d="M174.74 110.217L207.085 157.508L228.781 155.922L198.788 106.781L174.74 110.217Z" fill="white"/>
<path d="M198.788 106.781L228.781 155.922L231.884 143.856L207.303 101.31L198.788 106.781Z" fill="white"/>
<path d="M232.66 142.297L231.884 143.856L228.781 155.922L234.129 144.862L232.66 142.297Z" fill="white"/>
<path d="M232.66 142.297L234.129 144.862L239.992 155.103L263.681 153.371L237.931 101.188L211.301 104.993L232.66 142.297Z" fill="white"/>
<path d="M237.931 101.188L263.681 153.371L266.853 140.761L245.865 95.5793L237.931 101.188Z" fill="white"/>
<path d="M257.113 24.0849L251.868 9.66382L238.047 20.3515L245.865 95.5793L266.853 140.761L263.681 153.371L272.888 124.352L297.171 121.727L284.06 84.3236L256.495 88.6069L271.832 124.466L266.36 117.018L253.124 86.5392L247.888 38.6534L250.113 31.3247L257.113 24.0849Z" fill="white"/>
<path d="M111.889 86.1861L111.858 84.2483M111.889 86.1861L110.209 86.5116M111.889 86.1861L172.708 74.4014M111.858 84.2483L110.206 86.2927M111.858 84.2483L80.6589 45.3641M80.6589 45.3641L67.5367 48.9029L61.6838 51.1069M80.6589 45.3641L40.377 60.7624M80.6589 45.3641L83.1438 52.9257M61.6838 51.1069L61.4296 51.2028M61.6838 51.1069L61.2473 50.599M61.4296 51.2028L61.2473 50.599M61.4296 51.2028L26.162 64.4842M26.162 64.4842L25.914 70.528M26.162 64.4842L40.377 60.7624M25.914 70.528L23.4955 129.496M25.914 70.528L19.3834 66.2589M23.4955 129.496L23.3991 131.84M23.4955 129.496L16.3534 132.847M23.3991 131.84L60.5928 163.304M23.3991 131.84L38.1994 129.725M60.5928 163.304L62.9251 165.277M60.5928 163.304L59.1648 168.32M62.9251 165.277L65.9366 167.825L80.102 166.789M62.9251 165.277L59.1648 168.32M80.102 166.789L112.731 138.358M80.102 166.789L38.1994 129.725M80.102 166.789L82.8431 157.045M112.731 138.358L112.274 110.024M112.731 138.358L110.914 133.428M112.274 110.024L110.566 110.292M112.274 110.024L174.178 100.31M38.1994 129.725L40.377 60.7624M38.1994 129.725L48.0213 124.978M40.377 60.7624L49.4924 66.9592M49.4924 66.9592L48.0213 124.978M49.4924 66.9592L83.1438 52.9257M48.0213 124.978L82.8431 157.045M83.1438 52.9257L110.206 86.2927M110.206 86.2927L110.209 86.5116M82.8431 157.045L110.914 133.428M110.914 133.428L110.566 110.292M110.566 110.292L84.4293 114.393L82.9665 114.331L81.4895 113.837L80.0574 112.922L78.7281 111.619L77.5573 109.975L76.5947 108.056L75.8819 105.939L75.4492 103.712L75.3151 101.467L75.4837 99.2976L75.9471 97.2924L76.6831 95.5329L77.659 94.0868L78.8331 93.0085L80.1555 92.335L81.4586 92.0826L81.6281 92.0495L110.209 86.5116M216.785 11.0679L215.673 8.95315M216.785 11.0679L225.657 6.26054L246.663 0.595459M216.785 11.0679L204.264 17.8527M215.673 8.95315L196.274 14.1844L170.009 26.8213M215.673 8.95315L192.562 20.9163M170.009 26.8213L172.708 74.4014M170.009 26.8213L192.562 20.9163M172.708 74.4014L174.178 100.31M174.178 100.31L174.74 110.217M174.74 110.217L207.085 157.508L228.781 155.922M174.74 110.217L198.788 106.781M228.781 155.922L234.129 144.862M228.781 155.922L198.788 106.781M228.781 155.922L231.884 143.856M234.129 144.862L232.66 142.297M234.129 144.862L239.992 155.103L263.681 153.371M198.788 106.781L192.562 20.9163M198.788 106.781L207.303 101.31M192.562 20.9163L201.665 29.3445M201.665 29.3445L207.303 101.31M201.665 29.3445L204.486 27.5909M207.303 101.31L231.884 143.856M231.884 143.856L232.66 142.297M232.66 142.297L211.301 104.993M204.486 27.5909L204.51 28.6413L210.311 100.862L211.301 104.993M204.486 27.5909L204.264 17.8527M61.2473 50.599L48.9289 53.921L6.17167 69.7182L5.23197 87.0519M61.2473 50.599L19.3834 66.2589M5.23197 87.0519L5.20669 87.5182M5.23197 87.0519L2.84198 88.0609M5.20669 87.5182L2.84198 88.0609M5.20669 87.5182L3.01237 127.997M3.01237 127.997L2.89135 130.228M3.01237 127.997L0.594727 128.372M2.89135 130.228L0.594727 128.372M2.89135 130.228L2.64333 134.806M2.64333 134.806L45.9344 169.287L59.1648 168.32M2.64333 134.806L16.3534 132.847M59.1648 168.32L16.3534 132.847M16.3534 132.847L19.3834 66.2589M257.113 24.0849L251.868 9.66382M257.113 24.0849L259.609 21.504L282.863 15.9452L288.35 22.1149M257.113 24.0849L250.113 31.3247M251.868 9.66382L246.663 0.595459M251.868 9.66382L238.047 20.3515M246.663 0.595459L229.094 11.3513M204.264 17.8527L229.094 11.3513M211.301 104.993L237.931 101.188M263.681 153.371L272.888 124.352L297.171 121.727M263.681 153.371L237.931 101.188M263.681 153.371L266.853 140.761M237.931 101.188L229.094 11.3513M237.931 101.188L245.865 95.5793M229.094 11.3513L238.047 20.3515M238.047 20.3515L245.865 95.5793M245.865 95.5793L266.853 140.761M266.853 140.761L272.103 124.437M301.468 80.3344L296.908 81.0498L296.466 80.7274L295.939 79.8309L295.347 78.3843L294.712 76.4375L294.06 74.0631L293.419 71.356L292.816 68.4284L292.277 65.4045L292.27 65.3565L291.825 62.4129L291.479 59.5816L291.253 57.0289L291.154 54.8579L291.185 53.1532L291.344 51.9751L291.619 51.3603L296.599 50.3953M301.468 80.3344L316.032 78.0488M301.468 80.3344L303.717 96.1885L300.926 112.936M316.032 78.0488L316.241 77.813L316.341 77.0109L316.332 75.684L316.215 73.8911L315.997 71.704L315.686 69.2055L315.296 66.4855L314.839 63.6396L314.331 60.7659L313.79 57.9632L313.235 55.3283L312.685 52.9543L312.158 50.9283L311.675 49.3283L311.254 48.2208L310.912 47.6569L310.663 47.67M316.032 78.0488L315.72 77.6969L315.316 76.7581L314.834 75.2582L314.291 73.2483L313.71 70.8037L313.116 68.0221L312.532 65.0192L311.984 61.9226L311.496 58.8647L311.089 55.9759L310.778 53.3773L310.576 51.1745L310.489 49.4525L310.519 48.2723L310.663 47.67M310.663 47.67L296.599 50.3953M296.599 50.3953L288.35 22.1149M2.84198 88.0609L0.594727 128.372M288.35 22.1149L283.535 30.7837M250.113 31.3247L247.888 38.6534L253.124 86.5392M250.113 31.3247L256.495 88.6069M250.113 31.3247L276.39 25.2955M253.124 86.5392L266.36 117.018L271.832 124.466L256.495 88.6069M253.124 86.5392L256.495 88.6069M256.495 88.6069L284.06 84.3236M297.171 121.727L284.06 84.3236M297.171 121.727L300.926 112.936M284.06 84.3236L276.39 25.2955M284.06 84.3236L290.235 80.6506M276.39 25.2955L283.535 30.7837M283.535 30.7837L290.235 80.6506M290.235 80.6506L300.926 112.936" stroke="black" stroke-linejoin="round"/>
</svg>
