<svg width="276" height="266" viewBox="0 0 1388 1334" fill="none" xmlns="http://www.w3.org/2000/svg">
    <path d="M95.1359 1210.02L306.772 97.8223L1255.93 714.965L95.1359 1210.02Z" stroke="black" stroke-width="108"/>
    <path d="M214.842 728.947L165.072 736.05Z" fill="white"/>
    <path d="M222.165 497.313L252.818 518.127Z" fill="white"/>
    <path d="M462.538 576.198L456.983 583.065L456.994 583.8" fill="white"/>
    <path d="M855.725 816.939L754.867 651.88Z" fill="white"/>
    <path d="M764.541 391.786L783.499 633.504Z" fill="white"/>
    <path d="M855.725 816.939L866.161 776.409L868.769 771.173" fill="white"/>
    <path d="M141.379 739.431L95.275 746.011Z" fill="white"/>
    <path d="M151.568 515.775L173.529 530.114Z" fill="white"/>
    <path d="M141.379 739.431L165.396 728.177Z" fill="white"/>
    <path d="M285.344 858.579L290.146 841.732Z" fill="white"/>
    <path d="M973.087 808.37L886.494 633.095Z" fill="white"/>
    <path d="M886.885 361.58L913.176 614.257Z" fill="white"/>
    <path d="M973.087 808.37L983.753 766.015L1001.41 711.185" fill="white"/>
    <path d="M948.92 590.838L1000.49 711.283Z" fill="white"/>
    <path d="M1039.85 396.62L1062.38 564.114Z" fill="white"/>
    <path d="M937.586 583.893L948.92 590.838Z" fill="white"/>
    <path d="M370.303 677.45L458.196 663.674L463.938 662.774L672.106 630.145" fill="white"/>
    <path d="M667.164 543.124L462.643 582.707L456.994 583.8L360.883 602.401L360.313 602.512L355.931 603.36" fill="white"/>
    <path d="M96.516 723.141L88.386 724.403Z" fill="white"/>
    <path d="M103.895 587.181L95.943 589.004Z" fill="white"/>
    <path d="M292.96 465.204L292.347 463.176Z" fill="white"/>
    <path d="M456.994 583.8L456.983 583.065L365.98 470.991L252.818 518.127L247.871 713.003L364.969 820.709L459.366 741.383L458.196 663.674L370.303 677.45L365.384 677.242L360.417 675.58L355.601 672.508L351.131 668.13L347.194 662.61L343.957 656.165L341.56 649.055L340.105 641.574L339.654 634.033L340.221 626.746L341.779 620.011L344.254 614.101L347.536 609.244L351.484 605.622L355.931 603.36L360.313 602.512L360.883 602.401L456.994 583.8Z" fill="white"/>
    <path d="M222.165 497.313L214.842 728.947L247.871 713.003L252.818 518.127L222.165 497.313Z" fill="white"/>
    <path d="M165.396 728.177L165.072 736.05L214.842 728.947L222.165 497.313L174.363 509.814L173.529 530.114L165.396 728.177Z" fill="white"/>
    <path d="M357.624 445.593L222.165 497.313L252.818 518.127L365.98 470.991L357.624 445.593Z" fill="white"/>
    <path d="M456.983 583.065L462.538 576.198L357.624 445.593L365.98 470.991L456.983 583.065Z" fill="white"/>
    <path d="M355.751 853.439L465.476 757.943L459.366 741.383L364.969 820.709L355.751 853.439Z" fill="white"/>
    <path d="M463.938 662.774L458.196 663.674L459.366 741.383L465.476 757.943L463.938 662.774Z" fill="white"/>
    <path d="M365.384 677.242L370.303 677.45L458.196 663.674L463.938 662.774L672.106 630.145L667.164 543.124L462.643 582.707L456.994 583.8L360.883 602.401L360.313 602.512L355.931 603.36L351.484 605.622L347.536 609.244L344.254 614.101L341.779 620.011L340.221 626.746L339.654 634.033L340.105 641.574L341.56 649.055L343.957 656.165L347.194 662.61L351.131 668.13L355.601 672.508L360.417 675.58L365.384 677.242Z" fill="white"/>
    <path d="M214.842 728.947L355.751 853.439L364.969 820.709L247.871 713.003L214.842 728.947Z" fill="white"/>
    <path d="M165.072 736.05L290.146 841.732L297.989 848.359L308.116 856.917L355.751 853.439L214.842 728.947L165.072 736.05Z" fill="white"/>
    <path d="M165.072 736.05L165.396 728.177L141.379 739.431L285.344 858.579L290.146 841.732L165.072 736.05Z" fill="white"/>
    <path d="M95.275 746.011L240.853 861.827L285.344 858.579L141.379 739.431L95.275 746.011Z" fill="white"/>
    <path d="M103.98 585.615L103.895 587.181L96.516 723.141L96.109 730.637L95.275 746.011L141.379 739.431L151.568 515.775L292.347 463.176L250.923 474.334L107.14 527.394L103.98 585.615Z" fill="white"/>
    <path d="M165.396 728.177L173.529 530.114L151.568 515.775L141.379 739.431L165.396 728.177Z" fill="white"/>
    <path d="M88.386 724.403L96.516 723.141L103.895 587.181L95.943 589.004L88.386 724.403Z" fill="white"/>
    <path d="M293.815 464.882L292.96 465.204L174.363 509.814L222.165 497.313L357.624 445.593L313.497 457.479L293.815 464.882Z" fill="white"/>
    <path d="M292.96 465.204L292.347 463.176L151.568 515.775L173.529 530.114L174.363 509.814L292.96 465.204Z" fill="white"/>
    <path d="M297.989 848.359L290.146 841.732L285.344 858.579L297.989 848.359Z" fill="white"/>
    <path d="M658.087 383.311L667.164 543.124L672.106 630.145L673.996 663.421L754.867 651.88L733.929 363.477L658.087 383.311Z" fill="white"/>
    <path d="M733.929 363.477L754.867 651.88L783.499 633.504L764.541 391.786L733.929 363.477Z" fill="white"/>
    <path d="M866.161 776.409L868.769 771.173L796.943 645.875L793.615 632.002L774.107 389.424L774.026 385.896L764.541 391.786L783.499 633.504L866.161 776.409Z" fill="white"/>
    <path d="M774.026 385.896L774.107 389.424L793.615 632.002L796.943 645.875L886.494 633.095L856.779 331.35L773.279 353.187L774.026 385.896Z" fill="white"/>
    <path d="M856.779 331.35L886.494 633.095L913.176 614.257L886.885 361.58L856.779 331.35Z" fill="white"/>
    <path d="M927.46 398.437L919.979 423.053L937.586 583.893L948.92 590.838L927.46 398.437Z" fill="white"/>
    <path d="M948.92 590.838L1041.61 576.451L1015.82 378.186L927.46 398.437L948.92 590.838Z" fill="white"/>
    <path d="M1015.82 378.186L1041.61 576.451L1062.38 564.114L1039.85 396.62L1015.82 378.186Z" fill="white"/>
    <path d="M1066.11 467.798L1067.04 465.733L1083.78 462.492L1056.04 367.503L1039.85 396.62L1062.38 564.114L1098.33 672.554L1107.72 616.303L1100.16 563.052L1084.82 565.455L1083.33 564.372L1081.56 561.361L1079.57 556.502L1077.44 549.963L1075.24 541.988L1073.09 532.895L1071.06 523.062L1069.25 512.905L1069.22 512.744L1067.73 502.857L1066.56 493.347L1065.8 484.773L1065.47 477.481L1065.58 471.755L1066.11 467.798Z" fill="white"/>
    <path d="M1067.04 465.733L1066.11 467.798L1065.58 471.755L1065.47 477.481L1065.8 484.773L1066.56 493.347L1067.73 502.857L1069.22 512.744L1069.25 512.905L1071.06 523.062L1073.09 532.895L1075.24 541.988L1077.44 549.963L1079.57 556.502L1081.56 561.361L1083.33 564.372L1084.82 565.455L1100.16 563.052L1149.13 555.375L1148.08 554.193L1146.72 551.04L1145.1 546.002L1143.28 539.251L1141.32 531.04L1139.32 521.697L1137.36 511.611L1135.52 501.21L1133.88 490.939L1132.51 481.236L1131.46 472.508L1130.78 465.109L1130.49 459.325L1130.59 455.361L1131.07 453.338L1083.78 462.492L1067.04 465.733Z" fill="white"/>
    <path d="M1041.61 576.451L1085.71 702.083L1098.33 672.554L1062.38 564.114L1041.61 576.451Z" fill="white"/>
    <path d="M1056.04 367.503L1037.59 346.78L959.393 365.451L951.001 374.12L927.46 398.437L1015.82 378.186L1039.85 396.62L1056.04 367.503Z" fill="white"/>
    <path d="M933.361 325.682L915.86 295.223L856.779 331.35L886.885 361.58L933.361 325.682Z" fill="white"/>
    <path d="M915.86 295.223L845.219 314.251L815.384 330.398L773.279 353.187L856.779 331.35L915.86 295.223Z" fill="white"/>
    <path d="M815.384 330.398L811.645 323.295L733.929 363.477L764.541 391.786L774.026 385.896L773.279 353.187L815.384 330.398Z" fill="white"/>
    <path d="M811.645 323.295L746.412 340.866L658.087 383.311L733.929 363.477L811.645 323.295Z" fill="white"/>
    <path d="M673.996 663.421L782.765 822.265L855.725 816.939L754.867 651.88L673.996 663.421Z" fill="white"/>
    <path d="M754.867 651.88L855.725 816.939L866.161 776.409L783.499 633.504L754.867 651.88Z" fill="white"/>
    <path d="M868.769 771.173L866.161 776.409L855.725 816.939L873.708 779.788L868.769 771.173Z" fill="white"/>
    <path d="M868.769 771.173L873.708 779.788L893.426 814.186L973.087 808.37L886.494 633.095L796.943 645.875L868.769 771.173Z" fill="white"/>
    <path d="M886.494 633.095L973.087 808.37L983.753 766.015L913.176 614.257L886.494 633.095Z" fill="white"/>
    <path d="M951.001 374.12L933.361 325.682L886.885 361.58L913.176 614.257L983.753 766.015L973.087 808.37L1004.05 710.9L1085.71 702.083L1041.61 576.451L948.92 590.838L1000.49 711.283L982.095 686.267L937.586 583.893L919.979 423.053L927.46 398.437L951.001 374.12Z" fill="white"/>
    <path d="M462.643 582.707L462.538 576.198M462.643 582.707L456.994 583.8M462.643 582.707L667.164 543.124M462.538 576.198L456.983 583.065M462.538 576.198L357.624 445.593M357.624 445.593L313.497 457.479L293.815 464.882M357.624 445.593L222.165 497.313M357.624 445.593L365.98 470.991M293.815 464.882L292.96 465.204M293.815 464.882L292.347 463.176M292.96 465.204L292.347 463.176M292.96 465.204L174.363 509.814M174.363 509.814L173.529 530.114M174.363 509.814L222.165 497.313M173.529 530.114L165.396 728.177M173.529 530.114L151.568 515.775M165.396 728.177L165.072 736.05M165.396 728.177L141.379 739.431M165.072 736.05L290.146 841.732M165.072 736.05L214.842 728.947M290.146 841.732L297.989 848.359M290.146 841.732L285.344 858.579M297.989 848.359L308.116 856.917L355.751 853.439M297.989 848.359L285.344 858.579M355.751 853.439L465.476 757.943M355.751 853.439L214.842 728.947M355.751 853.439L364.969 820.709M465.476 757.943L463.938 662.774M465.476 757.943L459.366 741.383M463.938 662.774L458.196 663.674M463.938 662.774L672.106 630.145M214.842 728.947L222.165 497.313M214.842 728.947L247.871 713.003M222.165 497.313L252.818 518.127M252.818 518.127L247.871 713.003M252.818 518.127L365.98 470.991M247.871 713.003L364.969 820.709M365.98 470.991L456.983 583.065M456.983 583.065L456.994 583.8M364.969 820.709L459.366 741.383M459.366 741.383L458.196 663.674M458.196 663.674L370.303 677.45L365.384 677.242L360.417 675.58L355.601 672.508L351.131 668.13L347.194 662.61L343.957 656.165L341.56 649.055L340.105 641.574L339.654 634.033L340.221 626.746L341.779 620.011L344.254 614.101L347.536 609.244L351.484 605.622L355.931 603.36L360.313 602.512L360.883 602.401L456.994 583.8M815.384 330.398L811.645 323.295M815.384 330.398L845.219 314.251L915.86 295.223M815.384 330.398L773.279 353.187M811.645 323.295L746.412 340.866L658.087 383.311M811.645 323.295L733.929 363.477M658.087 383.311L667.164 543.124M658.087 383.311L733.929 363.477M667.164 543.124L672.106 630.145M672.106 630.145L673.996 663.421M673.996 663.421L782.765 822.265L855.725 816.939M673.996 663.421L754.867 651.88M855.725 816.939L873.708 779.788M855.725 816.939L754.867 651.88M855.725 816.939L866.161 776.409M873.708 779.788L868.769 771.173M873.708 779.788L893.426 814.186L973.087 808.37M754.867 651.88L733.929 363.477M754.867 651.88L783.499 633.504M733.929 363.477L764.541 391.786M764.541 391.786L783.499 633.504M764.541 391.786L774.026 385.896M783.499 633.504L866.161 776.409M866.161 776.409L868.769 771.173M868.769 771.173L796.943 645.875M774.026 385.896L774.107 389.424L793.615 632.002L796.943 645.875M774.026 385.896L773.279 353.187M292.347 463.176L250.923 474.334L107.14 527.394L103.98 585.615M292.347 463.176L151.568 515.775M103.98 585.615L103.895 587.181M103.98 585.615L95.943 589.004M103.895 587.181L95.943 589.004M103.895 587.181L96.516 723.141M96.516 723.141L96.109 730.637M96.516 723.141L88.386 724.403M96.109 730.637L88.386 724.403M96.109 730.637L95.275 746.011M95.275 746.011L240.853 861.827L285.344 858.579M95.275 746.011L141.379 739.431M285.344 858.579L141.379 739.431M141.379 739.431L151.568 515.775M951.001 374.12L933.361 325.682M951.001 374.12L959.393 365.451L1037.59 346.78L1056.04 367.503M951.001 374.12L927.46 398.437M933.361 325.682L915.86 295.223M933.361 325.682L886.885 361.58M915.86 295.223L856.779 331.35M773.279 353.187L856.779 331.35M796.943 645.875L886.494 633.095M973.087 808.37L1004.05 710.9L1085.71 702.083M973.087 808.37L886.494 633.095M973.087 808.37L983.753 766.015M886.494 633.095L856.779 331.35M886.494 633.095L913.176 614.257M856.779 331.35L886.885 361.58M886.885 361.58L913.176 614.257M913.176 614.257L983.753 766.015M983.753 766.015L1001.41 711.185M1100.16 563.052L1084.82 565.455L1083.33 564.372L1081.56 561.361L1079.57 556.502L1077.44 549.963L1075.24 541.988L1073.09 532.895L1071.06 523.062L1069.25 512.905L1069.22 512.744L1067.73 502.857L1066.56 493.347L1065.8 484.773L1065.47 477.481L1065.58 471.755L1066.11 467.798L1067.04 465.733L1083.78 462.492M1100.16 563.052L1149.13 555.375M1100.16 563.052L1107.72 616.303L1098.33 672.554M1149.13 555.375L1149.83 554.583L1150.17 551.889L1150.14 547.432L1149.75 541.41L1149.01 534.064L1147.97 525.672L1146.66 516.536L1145.12 506.977L1143.41 497.325L1141.59 487.911L1139.72 479.061L1137.87 471.087L1136.1 464.282L1134.48 458.908L1133.06 455.188L1131.91 453.294L1131.07 453.338M1149.13 555.375L1148.08 554.193L1146.72 551.04L1145.1 546.002L1143.28 539.251L1141.32 531.04L1139.32 521.697L1137.36 511.611L1135.52 501.21L1133.88 490.939L1132.51 481.236L1131.46 472.508L1130.78 465.109L1130.49 459.325L1130.59 455.361L1131.07 453.338M1131.07 453.338L1083.78 462.492M1083.78 462.492L1056.04 367.503M95.943 589.004L88.386 724.403M1056.04 367.503L1039.85 396.62M927.46 398.437L919.979 423.053L937.586 583.893M927.46 398.437L948.92 590.838M927.46 398.437L1015.82 378.186M937.586 583.893L982.095 686.267L1000.49 711.283L948.92 590.838M937.586 583.893L948.92 590.838M948.92 590.838L1041.61 576.451M1085.71 702.083L1041.61 576.451M1085.71 702.083L1098.33 672.554M1041.61 576.451L1015.82 378.186M1041.61 576.451L1062.38 564.114M1015.82 378.186L1039.85 396.62M1039.85 396.62L1062.38 564.114M1062.38 564.114L1098.33 672.554" stroke="black" stroke-width="3" stroke-linejoin="round"/>
    </svg>